<svg width="375" height="360" viewBox="0 0 375 360" fill="none" xmlns="http://www.w3.org/2000/svg">
<path fill-rule="evenodd" clip-rule="evenodd" d="M350 17.1314C350 16.4213 350.376 15.7644 350.989 15.4056L375.989 0.763366C377.323 -0.0175286 379 0.944012 379 2.48916V140.081C379 140.792 378.624 141.448 378.011 141.807L353.011 156.449C351.677 157.23 350 156.269 350 154.724V17.1314ZM-6 219.924C-6 219.211 -5.62039 218.552 -5.00364 218.194L21.9964 202.53C23.3297 201.756 25 202.718 25 204.26V341.863C25 342.576 24.6204 343.235 24.0036 343.593L-2.99636 359.257C-4.32969 360.031 -6 359.069 -6 357.527V219.924ZM50 188.062C50 187.342 50.3871 186.678 51.0135 186.323L322.014 32.6633C323.347 31.9073 325 32.8704 325 34.403V171.557C325 172.277 324.613 172.942 323.986 173.297L52.9865 326.956C51.6532 327.712 50 326.749 50 325.216V188.062ZM165.659 66.3628C165.659 64.8314 164.009 63.8682 162.675 64.6216L-4.9839 159.359C-5.61176 159.713 -6 160.379 -6 161.1V186.382C-6 187.914 -4.34934 188.877 -3.01609 188.124L164.643 93.3866C165.271 93.0318 165.659 92.3665 165.659 91.6453V66.3628ZM381 173.237C381 171.706 379.349 170.742 378.016 171.496L210.357 266.233C209.729 266.588 209.341 267.253 209.341 267.974V293.257C209.341 294.788 210.991 295.751 212.325 294.998L379.984 200.261C380.612 199.906 381 199.241 381 198.52V173.237Z" fill="url(#paint0_linear_58808_3032)"/>
<defs>
<linearGradient id="paint0_linear_58808_3032" x1="187.5" y1="1.48613" x2="187.5" y2="359.533" gradientUnits="userSpaceOnUse">
<stop stop-color="#E61C44"/>
<stop offset="1" stop-color="#E61C44" stop-opacity="0"/>
</linearGradient>
</defs>
</svg>
